<svg xmlns="http://www.w3.org/2000/svg" width="25" height="25" viewBox="0 0 25 25"><path fill="#FD9A20" d="M21.361 3.565C20.224 1.744 19.002.558 17.959.746c-.557-.094-1.072.144-1.516.812-.216.321.201 1.167.581 1.871 1.123 2.073 2.147 3.943 2.331 6.888l.012.227c.286 6.115-3.181 9.162-6.767 9.278-3.146-.108-6.262-2.458-6.904-6.942a7.505 7.505 0 0 1-.034-.243c-.603-4.987.892-7.232 2.879-10.24.428-.653.198-.87-.223-1.069-.617-.288-1.1-.431-1.556-.368-.994-.131-1.729.534-3.097 2.605-2.244 3.786-2.599 8.144-1.55 11.87.626 2.221 1.749 4.212 3.268 5.721 1.924 2.023 4.525 3.247 7.575 3.106 2.502-.112 4.707-1.295 6.425-3.103 2.323-2.315 3.813-5.762 4.037-9.34.179-2.835-.435-5.749-2.059-8.254zM3.303 12.917c-.14-.696-.172-1.447-.044-1.84l.973-.08s-.124.752.05 1.761c.043.249-.93.405-.979.159zm1.65 2.657l.001.005c.009.025.02.048.03.074a.041.041 0 0 0 .008.023c.006.023.016.044.025.063.003.011.006.016.009.024l.028.069a.305.305 0 0 0 .008.022l.039.091.002.001.038.088.044.091c.003.011.01.022.015.031a.33.33 0 0 0 .032.068l.014.031c.017.032.034.062.05.098a.05.05 0 0 1 .008.022l.001.009c.002.004.002.011.002.017-.002.004-.002.005-.002.009-.001.007-.001.012-.004.02 0 .001-.003.006-.003.011l-.009.02-.002.008a.112.112 0 0 1-.019.029l-.004.003a.078.078 0 0 1-.02.024c-.001.008-.004.008-.008.011a.059.059 0 0 1-.021.023c-.003.001-.005.005-.006.009-.01.006-.017.017-.028.022-.001.003-.004.006-.007.006-.022.02-.051.04-.08.062-.013.012-.026.019-.042.029l-.005.001-.043.032h-.003a1.638 1.638 0 0 1-.203.096c-.042.02-.083.028-.124.04l-.002.001c-.019.003-.039.01-.058.01l-.001.002c-.017 0-.034.003-.048.003H4.56c-.017 0-.029 0-.044-.003H4.51a.058.058 0 0 1-.034-.009h-.004a.09.09 0 0 1-.035-.021c-.006-.004-.016-.016-.022-.023-.343-.615-.604-1.318-.604-1.733l.899-.388v.005c0 .005 0 .009.003.009v.008l.003.016h.001c.001.007.001.014.004.025v.005l.015.073.001.007c.001.011.006.024.01.039v.007a2.05 2.05 0 0 0 .029.117l.013.059c.002 0 .002 0 .002.005.006.024.013.043.02.066 0 .004.002.004.002.007.006.025.011.047.019.068 0 0 .004.007.004.011.014.05.031.104.048.159.001.005.004.007.005.014.006.024.017.048.024.071.002.007.005.009.006.016l.034.092zm1.999 4.525c-.542-.443-1.038-.998-1.188-1.386l.699-.694s.375.658 1.141 1.319c.19.16-.458.919-.652.761zm14.025-7.289c.175-1.009.051-1.761.051-1.761l.972.072c.129.398.094 1.148-.043 1.844-.049.252-1.023.095-.98-.155zm-.94 3.363c.475-.9.586-1.655.586-1.655l.902.386c0 .417-.264 1.117-.606 1.734-.123.219-1-.242-.882-.465zm-.435 2.704l-1.142 1.422-.006.003c-.189.159-.839-.596-.65-.763.768-.661 1.141-1.316 1.141-1.316l.657.654z"/><text transform="translate(-16.407 3.014)" font-family="'HelveticaNeue-Bold'" font-size="1.075">Created by Kelly Marie</text><text transform="translate(-16.407 4.089)" font-family="'HelveticaNeue-Bold'" font-size="1.075">from the Noun Project</text></svg>