<?xml version="1.0" encoding="utf-8"?>
<!-- Generator: Adobe Illustrator 16.0.0, SVG Export Plug-In . SVG Version: 6.00 Build 0)  -->
<!DOCTYPE svg PUBLIC "-//W3C//DTD SVG 1.1//EN" "http://www.w3.org/Graphics/SVG/1.1/DTD/svg11.dtd">
<svg version="1.1" id="Layer_1" xmlns="http://www.w3.org/2000/svg" xmlns:xlink="http://www.w3.org/1999/xlink" x="0px" y="0px"
	 width="25px" height="25px" viewBox="0 0 25 25" enable-background="new 0 0 25 25" xml:space="preserve">
<rect display="none" width="25" height="25"/>
<circle display="none" cx="12.5" cy="12.5" r="12.166"/>
<path fill="#FD9A20" d="M19.215,5.731c-0.863-1.379-1.789-2.277-2.58-2.136c-0.422-0.071-0.811,0.109-1.146,0.616
	c-0.164,0.243,0.152,0.883,0.439,1.417c0.852,1.57,1.627,2.986,1.766,5.217c0.005,0.059,0.007,0.113,0.011,0.172
	c0.215,4.631-2.41,6.942-5.128,7.03c-2.383-0.083-4.744-1.863-5.23-5.261c-0.009-0.06-0.018-0.12-0.025-0.184
	C6.863,8.826,7.995,7.125,9.5,4.847c0.324-0.495,0.15-0.659-0.169-0.81C8.864,3.819,8.498,3.711,8.152,3.758
	C7.4,3.659,6.843,4.163,5.806,5.731C4.107,8.599,3.838,11.9,4.632,14.725c0.474,1.682,1.325,3.189,2.476,4.334
	c1.458,1.532,3.428,2.457,5.739,2.353c1.895-0.085,3.565-0.981,4.868-2.351c1.76-1.756,2.889-4.365,3.059-7.077
	C20.908,9.837,20.441,7.629,19.215,5.731z M5.532,12.817c-0.106-0.528-0.131-1.097-0.034-1.395l0.738-0.061
	c0,0-0.095,0.57,0.038,1.334C6.306,12.885,5.569,13.003,5.532,12.817z M6.782,14.83v0.004c0.007,0.02,0.016,0.035,0.023,0.055
	c0.001,0.01,0.003,0.014,0.006,0.02c0.005,0.018,0.012,0.033,0.02,0.049c0.002,0.007,0.003,0.01,0.006,0.018
	c0.007,0.018,0.013,0.035,0.021,0.053c0.001,0.004,0.004,0.012,0.005,0.017c0.01,0.021,0.02,0.045,0.03,0.067h0.001
	c0.009,0.022,0.02,0.046,0.029,0.068l0.034,0.068c0.002,0.009,0.007,0.016,0.011,0.023c0.007,0.02,0.015,0.037,0.024,0.052
	C6.998,15.331,7,15.339,7.004,15.346c0.013,0.024,0.024,0.045,0.038,0.075c0.003,0.005,0.005,0.009,0.006,0.015
	c0.001,0.002,0.001,0.006,0.001,0.008c0.001,0.005,0.001,0.009,0.001,0.014c-0.001,0.003-0.001,0.005-0.001,0.007
	c-0.001,0.005-0.001,0.009-0.003,0.017c0,0.002-0.002,0.002-0.002,0.008c-0.001,0.003-0.003,0.009-0.007,0.016
	c-0.001,0.003-0.001,0.006-0.001,0.006c-0.004,0.008-0.009,0.016-0.015,0.021c0,0.001-0.003,0.003-0.003,0.003
	c-0.004,0.008-0.009,0.012-0.015,0.019c0,0.006-0.003,0.006-0.006,0.008c-0.004,0.008-0.01,0.015-0.016,0.017
	c-0.003,0.002-0.004,0.007-0.004,0.01C6.97,15.589,6.964,15.6,6.956,15.604c-0.001,0-0.003,0.004-0.005,0.004
	c-0.017,0.016-0.039,0.029-0.061,0.047l0,0c-0.01,0.01-0.02,0.015-0.032,0.022c0,0-0.001,0-0.003,0
	c-0.01,0.009-0.02,0.017-0.033,0.024H6.819c-0.049,0.025-0.102,0.051-0.154,0.072l0,0c-0.032,0.015-0.062,0.021-0.094,0.028
	L6.57,15.803c-0.014,0.002-0.03,0.01-0.044,0.01c-0.001,0-0.001,0-0.001,0c-0.012,0-0.025,0.002-0.035,0.002
	c-0.003,0-0.003,0-0.005,0c-0.013,0-0.021,0-0.033-0.002c-0.001,0-0.002,0-0.005,0c-0.009,0-0.016,0-0.025-0.008H6.418
	c-0.008-0.002-0.017-0.008-0.022-0.01c-0.002-0.002-0.005-0.005-0.005-0.005c-0.004-0.004-0.012-0.013-0.016-0.017
	c-0.26-0.469-0.458-1-0.458-1.312l0.682-0.295c0,0,0,0.002,0,0.003l0,0c0,0.004,0,0.008,0.001,0.008c0,0.003,0,0.003,0,0.007
	c0,0,0.001,0.006,0.003,0.012l0,0c0.001,0.006,0.001,0.011,0.004,0.019v0.004c0.004,0.017,0.006,0.034,0.011,0.056
	c0,0,0,0.002,0,0.006c0.001,0.01,0.005,0.02,0.007,0.029c0,0,0,0.004,0,0.006c0.006,0.025,0.014,0.053,0.021,0.078
	c0,0.004,0,0.008,0.001,0.01c0.004,0.015,0.007,0.027,0.01,0.045c0.002,0,0.002,0,0.002,0.005c0.004,0.017,0.01,0.03,0.015,0.048
	c0,0.005,0.002,0.005,0.002,0.007c0.003,0.021,0.008,0.036,0.014,0.052c0,0,0.002,0.004,0.002,0.01
	c0.011,0.035,0.024,0.078,0.037,0.119c0,0.004,0.003,0.006,0.004,0.011c0.005,0.019,0.013,0.036,0.019,0.055
	c0.001,0.005,0.004,0.007,0.004,0.013C6.766,14.783,6.773,14.807,6.782,14.83L6.782,14.83z M8.297,18.259
	c-0.41-0.338-0.786-0.757-0.901-1.051l0.53-0.524c0,0,0.284,0.498,0.865,0.998C8.934,17.803,8.443,18.379,8.297,18.259z
	 M18.921,12.735c0.134-0.764,0.04-1.334,0.04-1.334l0.736,0.056c0.098,0.301,0.07,0.869-0.033,1.396
	C19.628,13.043,18.889,12.926,18.921,12.735z M18.211,15.284c0.359-0.685,0.441-1.255,0.441-1.255l0.685,0.291
	c0,0.315-0.198,0.848-0.459,1.314C18.785,15.801,18.12,15.452,18.211,15.284z M17.881,17.333l-0.865,1.075c0,0,0,0-0.005,0.002
	c-0.142,0.121-0.634-0.449-0.491-0.576c0.582-0.501,0.863-0.997,0.863-0.997L17.881,17.333z"/>
<text transform="matrix(1 0 0 1 -16.4062 3.0146)" display="none" enable-background="new    " font-family="'HelveticaNeue-Bold'" font-size="1.0753">Created by Kelly Marie</text>
<text transform="matrix(1 0 0 1 -16.4062 4.0889)" display="none" enable-background="new    " font-family="'HelveticaNeue-Bold'" font-size="1.0753">from the Noun Project</text>
</svg>
