<?xml version="1.0" encoding="utf-8"?>
<!-- Generator: Adobe Illustrator 16.0.0, SVG Export Plug-In . SVG Version: 6.00 Build 0)  -->
<!DOCTYPE svg PUBLIC "-//W3C//DTD SVG 1.1//EN" "http://www.w3.org/Graphics/SVG/1.1/DTD/svg11.dtd">
<svg version="1.1" id="Layer_1" xmlns="http://www.w3.org/2000/svg" xmlns:xlink="http://www.w3.org/1999/xlink" x="0px" y="0px"
	 width="25px" height="25px" viewBox="0 0 25 25" enable-background="new 0 0 25 25" xml:space="preserve">
<path fill="#FD9A20" d="M21.361,3.565c-1.137-1.821-2.359-3.007-3.402-2.819c-0.557-0.094-1.072,0.144-1.516,0.812
	c-0.216,0.321,0.201,1.167,0.581,1.871c1.123,2.073,2.147,3.943,2.331,6.888c0.005,0.077,0.007,0.15,0.012,0.227
	c0.286,6.115-3.181,9.162-6.767,9.278c-3.146-0.108-6.262-2.458-6.904-6.942c-0.012-0.079-0.024-0.159-0.034-0.243
	C5.059,7.65,6.554,5.405,8.541,2.397c0.428-0.653,0.198-0.87-0.223-1.069C7.701,1.04,7.218,0.897,6.762,0.96
	C5.768,0.829,5.033,1.494,3.665,3.565c-2.244,3.786-2.599,8.144-1.55,11.87c0.626,2.221,1.749,4.212,3.268,5.721
	c1.924,2.023,4.525,3.247,7.575,3.106c2.502-0.112,4.707-1.295,6.425-3.103c2.323-2.315,3.813-5.762,4.037-9.34
	C23.599,8.984,22.985,6.07,21.361,3.565z M3.303,12.917c-0.14-0.696-0.172-1.447-0.044-1.84l0.973-0.08c0,0-0.124,0.752,0.05,1.761
	C4.325,13.007,3.352,13.163,3.303,12.917z M4.953,15.574l0.001,0.005c0.009,0.025,0.02,0.048,0.03,0.074
	c0.001,0.011,0.004,0.018,0.008,0.023c0.006,0.023,0.016,0.044,0.025,0.063c0.003,0.011,0.006,0.016,0.009,0.024
	c0.009,0.023,0.018,0.047,0.028,0.069c0.002,0.006,0.005,0.015,0.008,0.022c0.013,0.028,0.025,0.06,0.039,0.091l0.002,0.001
	c0.012,0.028,0.025,0.059,0.038,0.088l0.044,0.091c0.003,0.011,0.01,0.022,0.015,0.031c0.009,0.025,0.02,0.05,0.032,0.068
	c0.005,0.01,0.009,0.022,0.014,0.031c0.017,0.032,0.034,0.062,0.05,0.098c0.005,0.009,0.007,0.013,0.008,0.022
	c0.001,0.002,0.001,0.006,0.001,0.009c0.002,0.004,0.002,0.011,0.002,0.017c-0.002,0.004-0.002,0.005-0.002,0.009
	c-0.001,0.007-0.001,0.012-0.004,0.02c0,0.001-0.003,0.006-0.003,0.011c-0.002,0.005-0.005,0.013-0.009,0.02
	c-0.001,0.004-0.002,0.008-0.002,0.008c-0.005,0.011-0.011,0.02-0.019,0.029c0,0.001-0.004,0.003-0.004,0.003
	c-0.005,0.01-0.012,0.017-0.02,0.024c-0.001,0.008-0.004,0.008-0.008,0.011c-0.005,0.01-0.013,0.018-0.021,0.023
	c-0.003,0.001-0.005,0.005-0.006,0.009c-0.01,0.006-0.017,0.017-0.028,0.022c-0.001,0.003-0.004,0.006-0.007,0.006
	c-0.022,0.02-0.051,0.04-0.08,0.062l0,0c-0.013,0.012-0.026,0.019-0.042,0.029c-0.001,0.001-0.003,0.001-0.005,0.001
	c-0.014,0.011-0.027,0.02-0.043,0.032H5.001c-0.064,0.036-0.134,0.069-0.203,0.096l0,0c-0.042,0.02-0.083,0.028-0.124,0.04
	l-0.002,0.001c-0.019,0.003-0.039,0.01-0.058,0.01c-0.001,0-0.001,0-0.001,0.002c-0.017,0-0.034,0.003-0.048,0.003
	c-0.003,0-0.003,0-0.005,0c-0.017,0-0.029,0-0.044-0.003c-0.002,0-0.003,0-0.006,0c-0.013,0-0.023-0.002-0.034-0.009H4.472
	c-0.01-0.003-0.022-0.01-0.029-0.016c-0.002-0.002-0.006-0.005-0.006-0.005c-0.006-0.004-0.016-0.016-0.022-0.023
	c-0.343-0.615-0.604-1.318-0.604-1.733l0.899-0.388c0,0,0,0.003,0,0.005l0,0c0,0.005,0,0.009,0.003,0.009c0,0.003,0,0.003,0,0.008
	c0,0.004,0.001,0.007,0.003,0.016h0.001c0.001,0.007,0.001,0.014,0.004,0.025v0.005c0.005,0.02,0.009,0.044,0.015,0.073
	c0,0,0,0.002,0.001,0.007c0.001,0.011,0.006,0.024,0.01,0.039c0,0,0,0.004,0,0.007c0.007,0.034,0.016,0.069,0.026,0.107
	c0,0.003,0.001,0.007,0.003,0.01c0.004,0.017,0.008,0.036,0.013,0.059c0.002,0,0.002,0,0.002,0.005
	c0.006,0.024,0.013,0.043,0.02,0.066c0,0.004,0.002,0.004,0.002,0.007c0.006,0.025,0.011,0.047,0.019,0.068
	c0,0,0.004,0.007,0.004,0.011c0.014,0.05,0.031,0.104,0.048,0.159c0.001,0.005,0.004,0.007,0.005,0.014
	c0.006,0.024,0.017,0.048,0.024,0.071c0.002,0.007,0.005,0.009,0.006,0.016C4.931,15.514,4.941,15.542,4.953,15.574L4.953,15.574z
	 M6.952,20.099c-0.542-0.443-1.038-0.998-1.188-1.386l0.699-0.694c0,0,0.375,0.658,1.141,1.319
	C7.794,19.498,7.146,20.257,6.952,20.099z M20.977,12.81c0.175-1.009,0.051-1.761,0.051-1.761l0.972,0.072
	c0.129,0.398,0.094,1.148-0.043,1.844C21.908,13.217,20.934,13.06,20.977,12.81z M20.037,16.173c0.475-0.9,0.586-1.655,0.586-1.655
	l0.902,0.386c0,0.417-0.264,1.117-0.606,1.734C20.796,16.857,19.919,16.396,20.037,16.173z M19.602,18.877l-1.142,1.422
	c-0.001,0-0.002,0-0.006,0.003c-0.189,0.159-0.839-0.596-0.65-0.763c0.768-0.661,1.141-1.316,1.141-1.316L19.602,18.877z"/>
<text transform="matrix(1 0 0 1 -16.4067 3.0142)" font-family="'HelveticaNeue-Bold'" font-size="1.0753">Created by Kelly Marie</text>
<text transform="matrix(1 0 0 1 -16.4067 4.0889)" font-family="'HelveticaNeue-Bold'" font-size="1.0753">from the Noun Project</text>
</svg>
