<?xml version="1.0" encoding="utf-8"?>
<!-- Generator: Adobe Illustrator 16.0.0, SVG Export Plug-In . SVG Version: 6.00 Build 0)  -->
<!DOCTYPE svg PUBLIC "-//W3C//DTD SVG 1.1//EN" "http://www.w3.org/Graphics/SVG/1.1/DTD/svg11.dtd">
<svg version="1.1" id="Layer_1" xmlns="http://www.w3.org/2000/svg" xmlns:xlink="http://www.w3.org/1999/xlink" x="0px" y="0px"
	 width="25px" height="25px" viewBox="0 0 25 25" enable-background="new 0 0 25 25" xml:space="preserve">
<path fill="#FDFFFF" d="M22.877,7.492l-1.301-3.307l1.518-0.402c0.134-0.035,0.244-0.129,0.301-0.255
	c0.056-0.125,0.051-0.271-0.011-0.394l-1.126-2.19c-0.106-0.208-0.354-0.301-0.571-0.216l-4.857,1.894
	c-0.138,0.054-0.24,0.171-0.276,0.314c-0.035,0.144,0.001,0.296,0.097,0.408c1.324,1.533,2.084,3.729,2.084,6.023
	c0,4.456-2.796,8.08-6.233,8.08c-3.437,0-6.233-3.624-6.233-8.08c0-2.294,0.759-4.49,2.083-6.023
	C8.446,3.232,8.482,3.08,8.447,2.937C8.411,2.793,8.308,2.676,8.17,2.622L3.312,0.728C3.095,0.643,2.849,0.736,2.742,0.944
	l-1.125,2.19C1.554,3.257,1.55,3.402,1.606,3.527c0.056,0.126,0.167,0.22,0.3,0.255l1.518,0.402L2.123,7.492
	c-0.644,1.53-0.97,3.161-0.97,4.849c0,6.597,5.09,11.963,11.347,11.963s11.348-5.366,11.348-11.963
	C23.848,10.653,23.521,9.021,22.877,7.492z"/>
</svg>
